<svg xmlns="http://www.w3.org/2000/svg" viewBox="0 0 384.65 180.59"><g id="Layer_2" data-name="Layer 2"><g id="Layer_1-2" data-name="Layer 1"><path d="M372.51,155.62c-5.75,6.58-33.27,20.68-57.7,2.06-10.68-8.93-16.72-19.05-16.84-34.93-.1-12.8,0-31.94,0-32.13,0,0-.19-42.1,0-58,.12-9.94,3.55-25.11,7.5-29.21-9.33,2.52-25.22,13-36.89,32.13C260.24,49.21,254,68.36,254,90.29c.16,24.57,8.93,47.43,19.11,61.74,11.76,16.55,29.16,27.83,50.15,28.47C344.35,180.59,359.69,171,372.51,155.62Z"/><path d="M374.57,27.64C362.73,11.85,345.58.08,323.24,0c6.11.32,14.75,4.35,23.49,17.34,9,13.29,3.3,29.76-3.75,34-1.45,17.25,14.6,25.67,23.7,23.49C388.8,69.54,389.35,45.3,374.57,27.64Z"/><path d="M41.45,180.59c-6.82,0-20.73-5-20.72-21.28V32.19c0-3.65.07-5.44,0-11.25C20.22,5.3,7.11.21,0,.21c5.58,0,28.17.24,38.66,0C47.8,0,57.88,9.52,57.88,20.86V161.08c2.31,19.51,20.73,19.51,20.73,19.51Z"/><path d="M192.84,8.79C184.94,0,173.2,0,173.2,0h69.5L207.11,116.48s-2.42-49.36-6.52-87C198.76,13.82,196,12.27,192.84,8.79Z"/><path d="M124.24.21c-9.85,0-35.25-.13-37-.13,7.28,1.16,14.33,3.87,18.7,15,1.69,5.37,2.5,8.16,4.81,15.72l41.77,136.63c1.87,6.1,9.72,13.2,19.27,13.2h37.18c-7.18-.93-10.62-3-13.4-6.06-4.94-5.52-5.61-9.84-5.61-9.84s-28.43-93.8-41-133.88c-.64-2-4.54-16.45-5.34-18.06C138.3,2.19,130.08.21,124.24.21Z"/></g></g></svg>