<svg xmlns="http://www.w3.org/2000/svg" viewBox="0 0 423.27 180.59"><g id="Layer_2" data-name="Layer 2"><g id="Layer_1-2" data-name="Layer 1"><path d="M403.17,158.18c-13.27,5-26.39,4.76-34.81,2.39-18.67-5.42-30.88-18.67-35.69-29.63-7.44-12.61-5.64-40-5.64-40.23,0,0-.22-42.1,0-58,.12-8.51,3-20.85,6.58-26.8a.84.84,0,0,0-.17-1.15.89.89,0,0,0-1-.37C321.71,8,305.83,18.18,293.87,35.58c-9.42,13.71-16.47,32.86-16.47,54.8.18,24.56,10.07,47.43,21.55,61.74,13.28,16.54,32.91,27.82,56.59,28.47,19.8.07,35.69-8.73,48.59-20.71"/><path d="M410.5,27.64C399,14.08,386.1,4.29,365.9.72,364.11.4,363,.54,363,.94s.71.93,2.38,1.75A43.45,43.45,0,0,1,382,17.34c7.45,10.63,7.19,23.1.4,29.9C379.12,64.56,391,75,402.6,75s19.91-9.47,20.6-18.43C423.91,47.44,418.92,36.56,410.5,27.64Z"/><path d="M197.78.08h0a1,1,0,0,1,.63,1,1,1,0,0,1-1,1,1.07,1.07,0,0,1-.32-.06,29.5,29.5,0,0,1,11.35,6.79c3.54,3.48,6.69,5,8.75,20.71,4.62,37.62,7.35,87,7.35,87L264.67,0H197.38A1.1,1.1,0,0,1,197.78.08Z"/><polygon points="1.03 0.25 1.03 0.25 1.03 0.25 1.03 0.25"/><path d="M2.06,1.29a1,1,0,0,0-1-1H1a1,1,0,0,0-1,1,1,1,0,0,0,.58.91l.12,0A1,1,0,0,0,1,2.32,1,1,0,0,0,2.06,1.29Z"/><path d="M69.07,180.47a1,1,0,0,1,.46-1.94h0a1.06,1.06,0,0,1,.4.08c-5.65-2.2-12-6.83-13.65-16.63a11,11,0,0,1-.13-1.81V20.86C56.15,9.52,44.77,0,34.47.21c-8.23.16-23,.1-33.44,0A1,1,0,0,1,1,2.32,1,1,0,0,1,.7,2.25C7.38,5,13.86,10.69,14.23,20.94c.08,5.81,0,7.6,0,11.25V159.31c0,16.31,15.69,21.28,23.38,21.28H69.53a.88.88,0,0,1-.33-.07Z"/><path d="M69.93,178.61h0a1.06,1.06,0,0,0-.4-.08h0a1,1,0,0,0-.46,1.94l.13.05a.88.88,0,0,0,.33.07,1,1,0,0,0,.4-2Z"/><path d="M197.05,2h0Z"/><path d="M217.74,178.62a17.78,17.78,0,0,1-6.3-4.09c-5.57-5.52-6.33-9.84-6.33-9.84S173,70.89,158.8,30.81c-.72-2-5.13-16.45-6-18.06C146.88,2.19,137.6.29,131,.29H98a1,1,0,0,1,.39.08h0a1,1,0,0,1,.62,1,1,1,0,0,1-1,1,1.17,1.17,0,0,1-.27,0c5,1.94,9.4,5.51,12.61,12.75,1.91,5.37,2.82,8.16,5.43,15.72,0,0,41.9,121.48,47.13,136.63,2.1,6.1,11,13.2,21.74,13.2h32.76"/><path d="M98,.28Z"/><path d="M97.52,2.23l.1,0h.08l-.22-.09Z"/><path d="M99,1.31a1,1,0,0,0-.62-.95h0A1,1,0,0,0,98,.28h0a1,1,0,0,0-1,1,1,1,0,0,0,.54.89l.22.09a1.17,1.17,0,0,0,.27,0A1,1,0,0,0,99,1.31Z"/><path d="M218.37,179.56a1,1,0,0,0-.62-.95h0a1,1,0,0,0-.39-.08h0a1,1,0,0,0-1,1,1,1,0,0,0,.54.89l.22.09a1.28,1.28,0,0,0,.27.05A1,1,0,0,0,218.37,179.56Z"/><path d="M198.41,1a1,1,0,0,0-.63-.95h0a1.1,1.1,0,0,0-.4-.08h0a1,1,0,0,0-.45,2L197,2h0a1.07,1.07,0,0,0,.32.06A1,1,0,0,0,198.41,1Z"/><path d="M366.77,1.73a1,1,0,0,0-.62-.95h0a1.06,1.06,0,0,0-.4-.08h0a1.14,1.14,0,0,0-.33.05,1,1,0,0,0-.7,1,1,1,0,0,0,.58.91l.1,0h0a1.13,1.13,0,0,0,.32.06A1,1,0,0,0,366.77,1.73Z"/><path d="M403.17,158.18s4.25-1.73,4.47-1.94l-3.51,3.64"/></g></g></svg>