<svg xmlns="http://www.w3.org/2000/svg" viewBox="0 0 1177.62 478.32" fill='#ffffff' stroke='#000000'><defs></defs><g id="Layer_2" data-name="Layer 2"><g id="Layer_1-2" data-name="Layer 1"><path d="M468.38,164c-9.81-6-18.24-20.48-16.14-44.49-7.57,8.7-11.88,3.67-17.77-16.12,4.33-4.33,21.49-6.65,36.24-2-14.12-14.11-40.19-27.25-34.9-39-7-2.69-17.81-10.49-21-15.73-4.17-4.17-38.73-17.21-47.66-18.51C409.88,76.1,424.69,120.5,394,98.23c-8.75,16.58-.38,34.33-14.93,63.06C390,158,395.14,158,398.49,150.1c7.2,12.11-3.73,35.07-3.73,35.07,7,7,9.78,26.12,25,36.89-10.67,3.19-14.39,4.39-22.07-3.29-2.8,35.27,29.93,74.39,34.74,77.85,7.92-19.3,15.45,17.47,10.13,36.32,35.6-18.8,27.55,42.52,15.86,51.61,14.37,0,60.9-34.22,71.18-44.61,4.27-6.91,8-24.91,12-13.71,13.29-16.37,10.41-25.7,10.41-41.4,4.13.1,7.83-1.66,9.93,7.07,17.44-17.45,4.85-35.64,30.6-79.86-11.35,3.36-6.8-32-6.8-32-8.8,12.68-18.08-25.71-15.59-22,5.84,8.65,11.88,14.12,19,10.91-8.4-42.54-3.92-52.62-.48-64.52,5.84-15.35,6.64-39,26.23-34.55C614.93,51.5,579.1,26,515.29.42c23.57,19.16,43.5,43.69,27.43,56.25,19.95,8.2,4.63,47.9-10.05,18.45C530.93,119.29,522,136.93,509,133.68c12.31,44.3,11.42,57.75,20.83,63.61-6.44,9.29-6.19,20.39-18.82,18.26,2,12.55,1.81,41,8.47,36.9,7.47,14.36-11.06,51.52-24.19,60.41,6.35-28.08-.39-43.52-6-51.47,0,0-3.62,4.56-3.62,9.42-9-6.15-17.22-49.67-15.4-54.85C457.16,202.88,465.25,174,468.38,164Z"/><path  d="M333.51,175.45a2.2,2.2,0,0,0-.37.53C333.58,175.46,333.74,175.23,333.51,175.45Z"/><path d="M414.68,309.47c-1,2-32.42,7.85-37.18-9-7.45,3.73-11.7,21.4-47.6-14.49,31.91,8.19,71.84,6,88.14.62-29.49-14-35.39-42.71-24.71-50.66-11.33-1.61-51.17-32.22-53.8-31.34,0-31.65-14.84-29.11-5.92-49.24-3.59,0-5.55,5.2-17.06,0C305.14,149,283.61,133.19,274,114.65c9.95,2.8,21.47,5.77,29,5.77a42.25,42.25,0,0,1,12.47,8.93,35.53,35.53,0,0,0,25.43,10.42c-3.92-6.19-8.15-15-7.3-20.27,12.37,8.29,17.7,14.55,28.24,18.7,8.22,8.22,8.33,23,10.15,28.5,16.74-43.89,2.59-43.95,6.34-65.85,4.18-25.68,9-13.07,9-13.07-4.65-27.43-22.47-43.73-30-47.33,5.29,11.45-4.93,22.71-24.72,4.79-16,0-20.1-6.49-44.59-25.55,4.17,20.84,13.16,30.76,20.89,37.92,3.39,3.14,13.41,10.17,4.64,12.48-11,2.88-24.79,4.44-42.32-13.1C261.54,68.93,234.3,43.61,219,35.93c20.9,16,13.75,23.27,17.87,27.38C247.64,74.08,254.06,73.54,254,75.79s-11.35,3.86-31.64-2.17c-1.46-1.86-2.78-3.64-3.82-5.2-7.52-7.52-8.73-3-21.64-8,1,.39,13,6.83,7.39,14.82-20.72-2-19.34-19.19-12.9-21.06-8-.13-17.48-4.28-23.63-10.63s-9.83-3.86-30.59-20c5.9,6.1,15.5,26.89,16.67,39.84-2.93-1.7-10.45-9.7-17.16-11.81,6.89,7.11,10,39,9.81,50.5s38.27,48.06,38.27,48.06-23.71-35.84-17.86-56.44c6.22,3.59,11.84,26.05,31.51,36.82-2.93-10.46-5.22-17.89-5.22-25.93,11.43,0,21.55,18.78,29.71,21.75,0-6,2.31-12.39,5.44-9.15s16.39,10.19,22.36,8.25c-4.74,4.73,14.08,32.56-3,29.87,3.54,2.44-6.53,29.62,11,57.6,0-19,21.91-22.12,29.34-19.66-3.9,12.24,9.26,19.24-3.9,36.08,19.78,9.88,2.47,23.94,16.19,31.46,0,13-27.28,12.82-25,16.5,0,0,16.85,23.53-7.21,29.44-1.94-1-45.63,3.92-71.92-33.52-.36,9.22-1.49,24.53-14.93,24.53-18.65,7.56-18.2,21.45-37.15,40.4,24.94-16.15,28,16.73-15.93,31.69C142.31,399.2.7,478.07.7,478.07s168.54-29.24,211.46-69.23c4.69-4.36,16.07-20.13,24.71-24.43-10.79,3.42-22.22,6.38-25.9-2.31-1.89-20.08,26.66-5.47,36.5-5.47-7.2-2.44-21-15.14-21-33.05,21.27-4.48,59.41,10.49,62.74,11.75-8.64-25.07,57.33,5,63.21,5.13,0,0-1.69-15.76-17.31-26.82,11.14,0,42.64,9.38,42.4,23.93,15.6-15.1,25.6-7.6,28.68-7.55,10.56,4.27,36,5.53,44.54-2.74C413.13,336.31,414.41,326.07,414.68,309.47Z"/><path  d="M594.78,231.63C605.41,237.79,604.51,209,611,176c-2.65,0-11.33,6.11-13.13,16.51-7.83-36.5,8.81-63.57,5.61-80.36,11.07,0,30.47-3.08,24.87-13.81,17.35,0-8.22-34-8.13-46,.11-13.66,5.32-39.39,20.84-39.39-3.75,32.86,58.38,39.28,58.38,31.15,15.18,17.72,31.62,16.82,37.45,14.18-.78,7.09,5.19,37.7,13.48,48-8.35-1.16-22.21-9.32-29.13-7-3,7.3,1.14,38.47,20.15,76.92-6.25-1.67-14-3.26-14-3.26-9.77-7-16.42-17.16-22.89-28.08-1.31-2.19-.75,6.72-.75,6.72-10.46-7.15-12.06-9.06-18.41-13.08a73.49,73.49,0,0,1-15.79-29.74c-7.74,7.74-12.52,30.21-19,35.1,0,4,6.06,13,10.26,13,4.43,14.9,11,61.85,33.58,69.12-8,1-14.74-4.07-28.73,14,3.36,15.67-6.72,32.07-11,33.4,2.57,2.56,13.17,3.86,13.17,3.86,7.09-.58,21.24-3.87,23.74-14.06,4.62,1.54,5.79,4.38,20.71-15.22,0,5.92,1.18,8.19,3.08,8.08,0-8.08,23.4-22,29.39-30.09,6.64,4.92,2.84,2.07,9.65,9.94-9.65-7.14-17.07,18.19-13.29,22-4.76,6.44-7,11.75-.84,16.23-2.37,3.48-13.15,7.28-18.77,7.28-2.38,0-3.32,9.63,2.11,9.63-12.8,14.53-28.72,30.11-37.36,32.63-2.89,20.73-.72,46.29,10.92,57.93-12.2.08-41.74-26.06-56-40.3,0-25.19-26.87-21.53-18.48-.56C606.49,332.83,585.57,305.54,583,291c5.94,0,11.6-24.62-1.83-31.9A29.7,29.7,0,0,0,594.78,231.63Z"/><path  d="M938.46,282.12c36.45,38.78-32.47,33.66-48.78,12.76C881.36,309.81,860.17,226,869,180.07c-22.66-10.44-21.12-77.63-21.12-89.49C833.39,88.9,856.73,46,864.39,18c-2,.78-27.81,33.72-40.12,26.68-19.55,15.66-45.17,22.55-60.74,14.55,2.3,5.67,11.34,18.33-2.51,32.19-.77,22.58,10.88,47.74-11.15,84.9,17.87,0,18.8-5.7,32.9-29.56,1.79,2.92,4.44,5.34,2.51,11.27,7,.86,33.17-39.8,40.11-46.74,0,16.51,8.21,54.48-11.47,58.21-10.45,40.28-14.53,50.35-27.34,54.57,9,0,7.81,5.79,23.7,4.33,0,14,8.11,32.85,20.15,43-5,5-26.47-3.92-31.79-17.91-1.78,5-2.58,10.26-5.73,12.33-3.06-6.45-24.94-21.65-35.73-25.08,2.24,11.83,2.86,21.29-7.63,10.79,4.89,15.95-7,41.13-13,35.17-6.35,6.35-42.42,53.72-43.66,71.19a74.82,74.82,0,0,1,39.23-21.72c36.18-7.56,76.26,9.53,103.22,18.13,11-32.24,95.81-3.41,102.84,9.15,11.57-23.78,54.31,61.95,53.69,100,40.64-55,190.31-21,185.48-23.08C1043,383.26,1027.69,341.12,996.32,312,983.17,299.8,967.2,289.89,938.46,282.12Z"/><path  d="M963.46,124.72c2.89,11.2,54.76-35.45,52.8-40.3-25.53,14.69-38.81,14.74-51.5,20.71-5.78-1.68-11,.94-15.11,5C954.13,100,956.09,93.1,954.41,85c-5.6,5.6-12.59,17.35-27.71,25.75,0,0-4.33-5-10.63-12.88.29,1.59-2.8,5-20.15-5,3.86,11.24,1.68,34.7-9.52,45.89,0-7.27-6.38-8.73-8.86-15.76-5.95,0-13.43,30.71-14.37,39.92-2.07-2.63-20.12-99.45-.73-111.55,1.76,9,3.72,12.86,9.13,15.19,5.22,1.77,24.63-9.15,15.81-14.23,26.84-16.37,41.37-3.12,64.88-.7-3.3,12.14,14.19,17.32,43.12-.77,7.56,7.56,33.84,2.73,74.65-12.06-.67,10,44.62,12.07,34.48,13.58-27.68,4.11-24.76,22.26-19.4,41.42-19.78,0-46.66,21.29-24.26,22.39-23.88,9.14-23.88,17-47.12,24.59,6.18,6.18,17.62,8.85,36.3-.34,4.48,19.58-63,56.26-63,67.17-39.13-7.54-79.39,11.35-104,69.76-10.45-54.25-.35-80.14,15.4-95.88,18.19,4.65,29.35-3.86,34.14-8.65-3.78.63-14.06-12.08-12.87-12.53C949.65,158,958,126.58,963.46,124.72Z"/></g></g></svg>