{
    "asset" : {
        "generator" : "Khronos glTF Blender I/O v1.7.33",
        "version" : "2.0"
    },
    "scene" : 0,
    "scenes" : [
        {
            "name" : "Scene",
            "nodes" : [
                0
            ]
        }
    ],
    "nodes" : [
        {
            "mesh" : 0,
            "name" : "Suzanne",
            "translation" : [
                2.1933865547180176,
                -0.7082847952842712,
                -4.093017578125
            ]
        }
    ],
    "meshes" : [
        {
            "name" : "Suzanne",
            "primitives" : [
                {
                    "attributes" : {
                        "POSITION" : 0,
                        "NORMAL" : 1,
                        "TEXCOORD_0" : 2
                    },
                    "indices" : 3
                }
            ]
        }
    ],
    "accessors" : [
        {
            "bufferView" : 0,
            "componentType" : 5126,
            "count" : 1974,
            "max" : [
                1.3671875,
                0.9844150543212891,
                0.8515176773071289
            ],
            "min" : [
                -1.3671875,
                -0.984375,
                -0.8515625
            ],
            "type" : "VEC3"
        },
        {
            "bufferView" : 1,
            "componentType" : 5126,
            "count" : 1974,
            "type" : "VEC3"
        },
        {
            "bufferView" : 2,
            "componentType" : 5126,
            "count" : 1974,
            "type" : "VEC2"
        },
        {
            "bufferView" : 3,
            "componentType" : 5123,
            "count" : 2904,
            "type" : "SCALAR"
        }
    ],
    "bufferViews" : [
        {
            "buffer" : 0,
            "byteLength" : 23688,
            "byteOffset" : 0
        },
        {
            "buffer" : 0,
            "byteLength" : 23688,
            "byteOffset" : 23688
        },
        {
            "buffer" : 0,
            "byteLength" : 15792,
            "byteOffset" : 47376
        },
        {
            "buffer" : 0,
            "byteLength" : 5808,
            "byteOffset" : 63168
        }
    ],
    "buffers" : [
        {
            "byteLength" : 68976,
            "uri" : "data:application/octet-stream;base64,"
        }
    ]
}
